{"title":"Omae no Okachan Bitch! aka Your Mom Is a Bitch! (2010) [Japanese","uid":12954016,"size":1556501659,"categoryP":"video","categoryS":"movies_dvdr","magnet":"?xt=urn:btih:6b700f22bb922dceeb9297878dac31773316b1a3&amp;dn=Omae+no+Okachan+Bitch%21+aka+Your+Mom+Is+a+Bitch%21+%282010%29+%5BJapanese&amp;tr=udp%3A%2F%2Ftracker.leechers-paradise.org%3A6969&amp;tr=udp%3A%2F%2Fzer0day.ch%3A1337&amp;tr=udp%3A%2F%2Fopen.demonii.com%3A1337&amp;tr=udp%3A%2F%2Ftracker.coppersurfer.tk%3A6969&amp;tr=udp%3A%2F%2Fexodus.desync.com%3A6969","seeders":0,"leechers":2,"uploader":"EVERBOY","files":1,"time":1449765151,"description":"COVER:-\r\n \nhttps://static.eigapedia.com/release-image/l_p0028654281.jpg\r\n\r\nINFORMATION:-\r\n\r\nYour Mother is a Bitch! is a 2010 Japanese movie directed by Shungicu Uchida and based on her own manga.\r\n\r\nMOVIE INFO:\r\nOriginal title............ãŠå‰ã®æ¯ã¡ã‚ƒã‚“Bitch! \r\nTransliterated title......Omae no KÄchan Bitch! \r\nAlternate titles..........Your Mom Is a Cougar (alternate export title) + more \r\nRelease date..............September 25, 2010 \r\nDirected by...............Shungicu Uchida \r\nWritten by................Shungicu Uchida (screenplay) &amp; Shungicu Uchida (manga) \r\nDistributed by............Argo Pictures \r\n\r\nPLOT: A college student named Yu becomes friends with an married older woman named Fumie who frequents the store where he works. Over time, their relationship turns romantic and the inexperienced Yu finds himself becoming more and more preoccupied with this confident adult woman.\r\n\r\nGENERAL\r\nFormat : Matroska\r\nFormat version : Version 2\r\nFile size : 1.45 GiB\r\nDuration : 1h 13mn\r\nOverall bit rate : 2 819 Kbps\r\nEncoded date : UTC 2015-04-26 01:18:59\r\nWriting application : mkvmerge v5.8.0 ('No Sleep / Pillow') built on Sep 2 2012 15:37:04\r\n\r\nVIDEO\r\nID : 1\r\nFormat : AVC\r\nFormat/Info : Advanced Video Codec\r\nFormat profile :   \r\nFormat settings, CABAC : No\r\nFormat settings, ReFrames : 1 frame\r\nMuxing mode : Header stripping\r\nCodec ID : V_MPEG4/ISO/AVC\r\nDuration : 1h 13mn\r\nBit rate : 2 650 Kbps\r\nWidth : 720 pixels\r\nHeight : 400 pixels\r\nDisplay aspect ratio : 16:9\r\nFrame rate mode : Constant\r\nFrame rate : 23.976 fps\r\nColor space : YUV\r\nChroma subsampling : 4:2:0\r\nBit depth : 8 bits\r\nScan type : Progressive\r\nBits/(Pixel*Frame) : 0.384\r\nStream size : 1.32 GiB (91%)\r\nWriting library : x264 core 125\r\nDefault : Yes\r\nForced : No\r\n\r\nAUDIO\r\nID : 2\r\nFormat : AC-3\r\nFormat/Info : Audio Coding 3\r\nMode extension : CM (complete main)\r\nFormat settings, Endianness : Big\r\nMuxing mode : Header stripping\r\nCodec ID : A_AC3\r\nDuration : 1h 13mn\r\nBit rate mode : Constant\r\nBit rate : 192 Kbps\r\nChannel(s) : 2 channels\r\nChannel positions : Front: L R\r\nSampling rate : 48.0 KHz\r\nBit depth : 16 bits\r\nCompression mode : Lossy\r\nDelay relative to video : 26ms\r\nStream size : 101 MiB (7%)\r\nDefault : Yes\r\nForced : No\r\n\r\nSCREENSHOTS:-\r\n \nhttp://i1093.photobucket.com/albums/i437/SahibDM/1.jpg \nhttp://i1093.photobucket.com/albums/i437/SahibDM/2.jpg \nhttp://i1093.photobucket.com/albums/i437/SahibDM/3.jpg \nhttp://i1093.photobucket.com/albums/i437/SahibDM/4_1.jpg \nhttp://i1093.photobucket.com/albums/i437/SahibDM/5.jpg \nhttp://i1093.photobucket.com/albums/i437/SahibDM/6_1.jpg \nhttp://i1093.photobucket.com/albums/i437/SahibDM/7.jpg\r\n\r\nTHANK YOU!","torrent":{"xt":"urn:btih:6b700f22bb922dceeb9297878dac31773316b1a3","amp;dn":"Omae+no+Okachan+Bitch%21+aka+Your+Mom+Is+a+Bitch%21+%282010%29+%5BJapanese","amp;tr":["udp%3A%2F%2Ftracker.leechers-paradise.org%3A6969","udp%3A%2F%2Fzer0day.ch%3A1337","udp%3A%2F%2Fopen.demonii.com%3A1337","udp%3A%2F%2Ftracker.coppersurfer.tk%3A6969","udp%3A%2F%2Fexodus.desync.com%3A6969"],"infoHash":"6b700f22bb922dceeb9297878dac31773316b1a3","infoHashBuffer":{"type":"Buffer","data":[107,112,15,34,187,146,45,206,235,146,151,135,141,172,49,119,51,22,177,163]},"announce":[],"urlList":[]}}